<svg id="Layer_1" data-name="Layer 1" xmlns="http://www.w3.org/2000/svg" viewBox="0 0 1024 1024"><defs><style>.cls-1{fill:#fff;}.cls-2{font-size:69.84px;fill:#585857;font-family:PTSans-Bold, PT Sans;font-weight:700;}.cls-3{fill:#70706f;}.cls-4{fill:#989797;}.cls-5{fill:#d5d6d6;}.cls-12,.cls-6,.cls-7,.cls-8{fill:none;stroke-miterlimit:10;}.cls-6,.cls-7,.cls-8{stroke:#ef8f00;}.cls-6,.cls-7{stroke-linecap:round;stroke-width:3.41px;}.cls-7{stroke-dasharray:16.93 16.93;}.cls-8{stroke-width:7.95px;}.cls-9{fill:#ef8f00;}.cls-10{fill:#f8b043;}.cls-11{fill:#eb7d00;}.cls-12{stroke:#adadae;stroke-width:1.05px;}.cls-13{fill:#adadae;}.cls-14{fill:#e96300;}</style></defs><rect class="cls-1" x="11.46" y="99.13" width="573.99" height="825.74" rx="22.19"/><text class="cls-2" transform="translate(209.29 210.86)">MENU</text><rect class="cls-3" x="58.7" y="258.9" width="479.52" height="12.08" rx="5.79"/><rect class="cls-3" x="58.7" y="321.94" width="222.39" height="12.08" rx="5.79"/><rect class="cls-3" x="315.83" y="321.94" width="222.39" height="12.08" rx="5.79"/><rect class="cls-4" x="58.7" y="364.63" width="135.98" height="6.04" rx="2.89"/><rect class="cls-4" x="238.97" y="364.63" width="42.12" height="6.04" rx="2.89"/><rect class="cls-4" x="58.7" y="389.6" width="135.98" height="6.04" rx="2.89"/><rect class="cls-4" x="238.97" y="389.6" width="42.12" height="6.04" rx="2.89"/><rect class="cls-4" x="58.7" y="414.57" width="135.98" height="6.04" rx="2.89"/><rect class="cls-4" x="238.97" y="414.57" width="42.12" height="6.04" rx="2.89"/><rect class="cls-4" x="58.7" y="439.53" width="135.98" height="6.04" rx="2.89"/><rect class="cls-4" x="238.97" y="439.53" width="42.12" height="6.04" rx="2.89"/><rect class="cls-4" x="58.7" y="464.5" width="135.98" height="6.04" rx="2.89"/><rect class="cls-4" x="238.97" y="464.5" width="42.12" height="6.04" rx="2.89"/><rect class="cls-4" x="315.83" y="364.63" width="135.98" height="6.04" rx="2.89"/><rect class="cls-4" x="496.1" y="364.63" width="42.12" height="6.04" rx="2.89"/><rect class="cls-4" x="315.83" y="389.6" width="135.98" height="6.04" rx="2.89"/><rect class="cls-4" x="496.1" y="389.6" width="42.12" height="6.04" rx="2.89"/><rect class="cls-4" x="315.83" y="414.57" width="135.98" height="6.04" rx="2.89"/><rect class="cls-4" x="496.1" y="414.57" width="42.12" height="6.04" rx="2.89"/><rect class="cls-4" x="315.83" y="439.53" width="135.98" height="6.04" rx="2.89"/><rect class="cls-4" x="496.1" y="439.53" width="42.12" height="6.04" rx="2.89"/><rect class="cls-4" x="315.83" y="464.5" width="135.98" height="6.04" rx="2.89"/><rect class="cls-4" x="496.1" y="464.5" width="42.12" height="6.04" rx="2.89"/><rect class="cls-5" x="69.23" y="530.44" width="201.33" height="152.61"/><path class="cls-6" d="M562.88,530.44l7-4.88"/><path class="cls-7" d="M583.75,515.88,798.91,365.74"/><path class="cls-6" d="M805.85,360.9l7-4.87"/><rect class="cls-5" x="315.83" y="553.79" width="135.98" height="6.04" rx="2.89"/><rect class="cls-5" x="496.1" y="553.79" width="42.12" height="6.04" rx="2.89"/><rect class="cls-5" x="315.83" y="578.75" width="135.98" height="6.04" rx="2.89"/><rect class="cls-5" x="496.1" y="578.75" width="42.12" height="6.04" rx="2.89"/><rect class="cls-5" x="315.83" y="603.72" width="135.98" height="6.04" rx="2.89"/><rect class="cls-5" x="496.1" y="603.72" width="42.12" height="6.04" rx="2.89"/><rect class="cls-5" x="315.83" y="628.69" width="135.98" height="6.04" rx="2.89"/><rect class="cls-5" x="496.1" y="628.69" width="42.12" height="6.04" rx="2.89"/><rect class="cls-5" x="315.83" y="653.66" width="135.98" height="6.04" rx="2.89"/><rect class="cls-5" x="496.1" y="653.66" width="42.12" height="6.04" rx="2.89"/><rect class="cls-4" x="58.7" y="742.21" width="135.98" height="6.04" rx="2.89"/><rect class="cls-4" x="238.97" y="742.21" width="42.12" height="6.04" rx="2.89"/><rect class="cls-4" x="58.7" y="767.17" width="135.98" height="6.04" rx="2.89"/><rect class="cls-4" x="238.97" y="767.17" width="42.12" height="6.04" rx="2.89"/><rect class="cls-4" x="58.7" y="792.14" width="135.98" height="6.04" rx="2.89"/><rect class="cls-4" x="238.97" y="792.14" width="42.12" height="6.04" rx="2.89"/><rect class="cls-4" x="58.7" y="817.11" width="135.98" height="6.04" rx="2.89"/><rect class="cls-4" x="238.97" y="817.11" width="42.12" height="6.04" rx="2.89"/><rect class="cls-4" x="58.7" y="842.08" width="135.98" height="6.04" rx="2.89"/><rect class="cls-4" x="238.97" y="842.08" width="42.12" height="6.04" rx="2.89"/><rect class="cls-5" x="315.83" y="743.02" width="222.39" height="104.29"/><rect class="cls-8" x="298.46" y="530.44" width="264.42" height="152.61"/><rect class="cls-1" x="619.07" y="101.4" width="393.47" height="265.05" rx="15.75"/><path class="cls-9" d="M647.83,210.79H858.91a0,0,0,0,1,0,0V341.48a0,0,0,0,1,0,0H647.83a5.68,5.68,0,0,1-5.68-5.68V216.47A5.68,5.68,0,0,1,647.83,210.79Z"/><path class="cls-10" d="M869.66,210.79H987.37a5.68,5.68,0,0,1,5.68,5.68v48.84a5.68,5.68,0,0,1-5.68,5.68H869.66a0,0,0,0,1,0,0v-60.2A0,0,0,0,1,869.66,210.79Z"/><path class="cls-11" d="M869.66,281.28H987.37a5.68,5.68,0,0,1,5.68,5.68V335.8a5.68,5.68,0,0,1-5.68,5.68H869.66a0,0,0,0,1,0,0v-60.2A0,0,0,0,1,869.66,281.28Z"/><rect class="cls-12" x="641.83" y="173.71" width="87.03" height="24.12" rx="11.16"/><rect class="cls-13" x="652.89" y="183.49" width="64.92" height="4.55" rx="2.28"/><rect class="cls-12" x="737.46" y="173.71" width="87.03" height="24.12" rx="11.16"/><rect class="cls-13" x="748.51" y="183.49" width="64.92" height="4.55" rx="2.28"/><rect class="cls-12" x="833.38" y="173.71" width="87.03" height="24.12" rx="11.16"/><rect class="cls-13" x="844.44" y="183.49" width="64.92" height="4.55" rx="2.28"/><rect class="cls-3" x="642.8" y="127.08" width="187.65" height="10.05" rx="5.03"/><rect class="cls-13" x="642.8" y="144.74" width="125.83" height="5.03" rx="2.51"/><path class="cls-14" d="M769.13,294.56c-2.79.33-7.33,2.86-9.89,3.95-2.27,1-5.49,2.33-8.7,1.18-1.41-.5-3.68-1.89-3.76-3.66s2.13-3.34,6.53-6.62c1-.72,1.27-.91,1.78-1.29,2.33-1.71,8.23-6,8.41-12,.11-3.2-1.44-7.2-4.74-9a9.79,9.79,0,0,0-6.62-.8c-.69.14-2.55.55-5.74,2.87a28.66,28.66,0,0,0-8.41,9.09,22.48,22.48,0,0,0-3.47,10,20.35,20.35,0,0,0,1.38,9.2,17.19,17.19,0,0,0,5.14,7.12,17.45,17.45,0,0,0,6.43,3.17,22.17,22.17,0,0,0,8.31.69c6.38-.64,10.47-3.77,13.15-5.82,3.69-2.82,3.83-4.25,3.76-4.95a3.82,3.82,0,0,0-2.37-3.06A2.67,2.67,0,0,0,769.13,294.56Zm-26-6.25c-1.36-1,.78-7.26,5-10.58,1.29-1,3.91-2.77,4.94-2s-.29,4.48-.4,4.75a11.57,11.57,0,0,1-3,4.05C748.39,285.76,744.33,289.24,743.13,288.31Z"/><rect class="cls-14" x="738.98" y="245.87" width="5.86" height="17.04" rx="2.88" transform="translate(-41.43 293.38) rotate(-21.78)"/><rect class="cls-14" x="752.21" y="243.6" width="5.86" height="17.04" rx="2.88" transform="translate(43.83 -105.43) rotate(8.22)"/><rect class="cls-14" x="728.48" y="253.09" width="5.86" height="17.04" rx="2.88" transform="translate(1389.48 -151.11) rotate(128.22)"/><rect class="cls-14" x="723.32" y="264.59" width="5.86" height="17.04" rx="2.88" transform="translate(1124.51 -392.78) rotate(100.27)"/><rect class="cls-14" x="763.88" y="248.39" width="5.86" height="17.04" rx="2.88" transform="translate(299.47 -403.08) rotate(36.18)"/></svg>